<?xml version="1.0" encoding="UTF-8"?>
<!-- Generator: Adobe Illustrator 21.1.0, SVG Export Plug-In . SVG Version: 6.00 Build 0)  -->
<svg version="1.1" id="Layer_1" xmlns="http://www.w3.org/2000/svg" xmlns:xlink="http://www.w3.org/1999/xlink" x="0px" y="0px" viewBox="0 0 142.9 214" style="enable-background:new 0 0 142.9 214;" xml:space="preserve">
<style type="text/css">
	.st0{fill:#1D1D1B;}
	.st1{fill:#FFFFFF;}
	.st2{fill:#0093D9;}
</style>
<g>
	<path class="st0" d="M136.1,14.7c0,1.8-1.4,3.2-3.2,3.2c-1.8,0-3.2-1.4-3.2-3.2c0-1.8,1.4-3.2,3.2-3.2   C134.7,11.4,136.1,12.9,136.1,14.7L136.1,14.7z"/>
	<path class="st0" d="M136.1,44c0,1.8-1.4,3.2-3.2,3.2c-1.8,0-3.2-1.4-3.2-3.2c0-1.8,1.4-3.2,3.2-3.2   C134.7,40.8,136.1,42.2,136.1,44L136.1,44z"/>
	<path class="st0" d="M136.1,73.3c0,1.8-1.4,3.2-3.2,3.2c-1.8,0-3.2-1.4-3.2-3.2c0-1.8,1.4-3.2,3.2-3.2   C134.7,70.1,136.1,71.5,136.1,73.3L136.1,73.3z"/>
	<path class="st0" d="M136.1,102.6c0,1.8-1.4,3.2-3.2,3.2c-1.8,0-3.2-1.4-3.2-3.2c0-1.8,1.4-3.2,3.2-3.2   C134.7,99.4,136.1,100.8,136.1,102.6L136.1,102.6z"/>
	<path class="st0" d="M136.1,131.9c0,1.8-1.4,3.2-3.2,3.2c-1.8,0-3.2-1.4-3.2-3.2c0-1.8,1.4-3.2,3.2-3.2   C134.7,128.7,136.1,130.1,136.1,131.9L136.1,131.9z"/>
	<path class="st0" d="M106.8,14.7c0,1.8-1.4,3.2-3.2,3.2c-1.8,0-3.2-1.4-3.2-3.2c0-1.8,1.4-3.2,3.2-3.2   C105.4,11.4,106.8,12.9,106.8,14.7L106.8,14.7z"/>
	<path class="st0" d="M106.8,44c0,1.8-1.4,3.2-3.2,3.2c-1.8,0-3.2-1.4-3.2-3.2c0-1.8,1.4-3.2,3.2-3.2   C105.4,40.8,106.8,42.2,106.8,44L106.8,44z"/>
	<path class="st0" d="M106.8,102.6c0,1.8-1.4,3.2-3.2,3.2c-1.8,0-3.2-1.4-3.2-3.2c0-1.8,1.4-3.2,3.2-3.2   C105.4,99.4,106.8,100.8,106.8,102.6L106.8,102.6z"/>
	<path class="st0" d="M110,131.9c0,3.6-2.9,6.4-6.4,6.4c-3.6,0-6.4-2.9-6.4-6.4c0-3.6,2.9-6.4,6.4-6.4   C107.2,125.5,110,128.4,110,131.9L110,131.9z"/>
	<path class="st0" d="M77.5,14.7c0,1.8-1.4,3.2-3.2,3.2c-1.8,0-3.2-1.4-3.2-3.2c0-1.8,1.4-3.2,3.2-3.2   C76.1,11.4,77.5,12.9,77.5,14.7L77.5,14.7z"/>
	<path class="st0" d="M77.5,44c0,1.8-1.4,3.2-3.2,3.2c-1.8,0-3.2-1.4-3.2-3.2c0-1.8,1.4-3.2,3.2-3.2C76.1,40.8,77.5,42.2,77.5,44   L77.5,44z"/>
	<path class="st0" d="M77.5,73.3c0,1.8-1.4,3.2-3.2,3.2c-1.8,0-3.2-1.4-3.2-3.2c0-1.8,1.4-3.2,3.2-3.2   C76.1,70.1,77.5,71.5,77.5,73.3L77.5,73.3z"/>
	<path class="st0" d="M77.5,73.3c0,1.8-1.4,3.2-3.2,3.2c-1.8,0-3.2-1.4-3.2-3.2c0-1.8,1.4-3.2,3.2-3.2   C76.1,70.1,77.5,71.5,77.5,73.3L77.5,73.3z"/>
	<path class="st1" d="M103.6,76.5c-1.8,0-3.2-1.4-3.2-3.2c0-1.8,1.4-3.2,3.2-3.2c1.8,0,3.2,1.4,3.2,3.2   C106.8,75.1,105.4,76.5,103.6,76.5"/>
	<path class="st2" d="M103.6,76.5c-1.8,0-3.2-1.4-3.2-3.2c0-1.8,1.4-3.2,3.2-3.2c1.8,0,3.2,1.4,3.2,3.2   C106.8,75.1,105.4,76.5,103.6,76.5L103.6,76.5z M103.6,63.6c-5.3,0-9.7,4.3-9.7,9.7c0,5.3,4.3,9.7,9.7,9.7s9.7-4.3,9.7-9.7   C113.3,68,108.9,63.6,103.6,63.6L103.6,63.6z"/>
	<path class="st0" d="M77.5,102.6c0,1.8-1.4,3.2-3.2,3.2c-1.8,0-3.2-1.4-3.2-3.2c0-1.8,1.4-3.2,3.2-3.2   C76.1,99.4,77.5,100.8,77.5,102.6L77.5,102.6z"/>
	<path class="st0" d="M77.5,131.9c0,1.8-1.4,3.2-3.2,3.2c-1.8,0-3.2-1.4-3.2-3.2c0-1.8,1.4-3.2,3.2-3.2   C76.1,128.7,77.5,130.1,77.5,131.9L77.5,131.9z"/>
	<path class="st0" d="M54.6,14.7c0,5.3-4.3,9.7-9.7,9.7c-5.3,0-9.7-4.3-9.7-9.7C35.3,9.3,39.6,5,45,5C50.3,5,54.6,9.3,54.6,14.7   L54.6,14.7z"/>
	<path class="st0" d="M48.2,44c0,1.8-1.4,3.2-3.2,3.2c-1.8,0-3.2-1.4-3.2-3.2c0-1.8,1.4-3.2,3.2-3.2C46.8,40.8,48.2,42.2,48.2,44   L48.2,44z"/>
	<path class="st0" d="M51.4,73.3c0,3.6-2.9,6.4-6.4,6.4c-3.6,0-6.4-2.9-6.4-6.4c0-3.6,2.9-6.4,6.4-6.4   C48.5,66.8,51.4,69.7,51.4,73.3L51.4,73.3z"/>
	<path class="st0" d="M48.2,102.6c0,1.8-1.4,3.2-3.2,3.2c-1.8,0-3.2-1.4-3.2-3.2c0-1.8,1.4-3.2,3.2-3.2   C46.8,99.4,48.2,100.8,48.2,102.6L48.2,102.6z"/>
	<path class="st0" d="M48.2,131.9c0,1.8-1.4,3.2-3.2,3.2c-1.8,0-3.2-1.4-3.2-3.2c0-1.8,1.4-3.2,3.2-3.2   C46.8,128.7,48.2,130.1,48.2,131.9L48.2,131.9z"/>
	<path class="st2" d="M18.9,14.7c0,1.8-1.4,3.2-3.2,3.2c-1.8,0-3.2-1.4-3.2-3.2c0-1.8,1.4-3.2,3.2-3.2   C17.4,11.4,18.9,12.9,18.9,14.7L18.9,14.7z"/>
	<path class="st0" d="M18.9,44c0,1.8-1.4,3.2-3.2,3.2c-1.8,0-3.2-1.4-3.2-3.2c0-1.8,1.4-3.2,3.2-3.2C17.4,40.8,18.9,42.2,18.9,44   L18.9,44z"/>
	<path class="st0" d="M18.9,73.3c0,1.8-1.4,3.2-3.2,3.2c-1.8,0-3.2-1.4-3.2-3.2c0-1.8,1.4-3.2,3.2-3.2   C17.4,70.1,18.9,71.5,18.9,73.3L18.9,73.3z"/>
	<path class="st0" d="M48.2,73.3c0,1.8-1.4,3.2-3.2,3.2c-1.8,0-3.2-1.4-3.2-3.2c0-1.8,1.4-3.2,3.2-3.2   C46.8,70.1,48.2,71.5,48.2,73.3L48.2,73.3z"/>
	<path class="st0" d="M18.9,131.9c0,1.8-1.4,3.2-3.2,3.2c-1.8,0-3.2-1.4-3.2-3.2c0-1.8,1.4-3.2,3.2-3.2   C17.4,128.7,18.9,130.1,18.9,131.9L18.9,131.9z"/>
	<polygon class="st0" points="11.8,175.9 32.9,175.9 32.9,181.1 17.5,181.1 17.5,188.9 32.1,188.9 32.1,194.1 17.5,194.1    17.5,202.7 33.8,202.7 33.8,207.9 11.8,207.9 11.8,175.9  "/>
	<polygon class="st0" points="42.9,175.9 50.5,175.9 66,199.6 66,199.7 66,199.7 66,199.6 66,175.9 71.7,175.9 71.7,207.9    64.5,207.9 48.7,183.4 48.6,183.4 48.6,207.9 42.9,207.9 42.9,175.9  "/>
	<path class="st0" d="M104.4,183.4c-2.3-2.5-4.5-3.2-6.7-3.2c-6.6,0-11,5.1-11,11.4c0,6.8,4.4,11.9,11,11.9c2.6,0,5.1-1.2,7.2-3.9   l4.7,3.3c-2.9,4-7.2,5.7-11.9,5.7c-9.8,0-16.9-6.7-16.9-16.6c0-10.2,7-16.9,16.9-16.9c4.3,0,8,1.4,11.2,5.1L104.4,183.4   L104.4,183.4z"/>
	<path class="st0" d="M132.6,182.8c-1.2-1.7-3.4-2.5-5.6-2.5c-2.6,0-5.2,1.2-5.2,4.1c0,6.4,15.2,2.8,15.2,14.1   c0,6.9-5.4,10.2-11.7,10.2c-4,0-7.8-1.2-10.5-4.3l4.3-4.1c1.4,2.1,3.8,3.3,6.3,3.3c2.6,0,5.6-1.4,5.6-4.4c0-7-15.2-3-15.2-14.4   c0-6.6,5.9-9.7,11.8-9.7c3.3,0,6.7,0.9,9.2,3.3L132.6,182.8L132.6,182.8z"/>
	<path class="st2" d="M15.7,92.9c-5.3,0-9.7,4.3-9.7,9.7c0,5.3,4.3,9.7,9.7,9.7c5.3,0,9.7-4.3,9.7-9.7C25.3,97.3,21,92.9,15.7,92.9   L15.7,92.9z"/>
	<path class="st0" d="M18.9,102.6c0,1.8-1.4,3.2-3.2,3.2c-1.8,0-3.2-1.4-3.2-3.2c0-1.8,1.4-3.2,3.2-3.2   C17.4,99.4,18.9,100.8,18.9,102.6L18.9,102.6z"/>
</g>
</svg>